<?xml version="1.0" encoding="iso-8859-1"?>
<!-- Generator: Adobe Illustrator 17.1.0, SVG Export Plug-In . SVG Version: 6.00 Build 0)  -->
<!DOCTYPE svg PUBLIC "-//W3C//DTD SVG 1.1//EN" "http://www.w3.org/Graphics/SVG/1.1/DTD/svg11.dtd">
<svg version="1.1" id="Capa_1" xmlns="http://www.w3.org/2000/svg" xmlns:xlink="http://www.w3.org/1999/xlink" x="0px" y="0px"
	 viewBox="0 0 211.931 211.931" style="enable-background:new 0 0 211.931 211.931;" xml:space="preserve">
<path d="M145.49,199.781H4c-2.209,0-4-1.791-4-4V16.149c0-2.209,1.791-4,4-4h141.49c2.209,0,4,1.791,4,4v43.488l39.477-39.477
	c1.563-1.562,4.095-1.562,5.657,0l16.136,16.136c1.562,1.563,1.562,4.095,0,5.657l-61.27,61.269v92.559
	C149.49,197.99,147.699,199.781,145.49,199.781z M8,191.781h133.49v-80.547l-19.313,19.314c-0.514,0.514-1.159,0.878-1.865,1.054
	l-21.464,5.329c-0.319,0.079-0.643,0.118-0.964,0.118c-0.004,0-0.007,0-0.011,0c-1.048,0-2.069-0.412-2.829-1.171
	c-0.992-0.992-1.392-2.431-1.054-3.792l5.329-21.464c0.175-0.706,0.54-1.35,1.054-1.865l41.118-41.117V20.149H8V191.781z
	 M106.826,113.626l-3.459,13.937l13.927-3.458l84.98-84.98l-10.479-10.479L148.491,71.95c-0.055,0.063-0.113,0.125-0.172,0.184
	L106.826,113.626z M120.084,178.152H25.106c-2.209,0-4-1.791-4-4s1.791-4,4-4h94.978c2.209,0,4,1.791,4,4
	S122.293,178.152,120.084,178.152z M120.084,155.434H25.106c-2.209,0-4-1.791-4-4s1.791-4,4-4h94.978c2.209,0,4,1.791,4,4
	S122.293,155.434,120.084,155.434z M83.888,109.997H25.106c-2.209,0-4-1.791-4-4s1.791-4,4-4h58.782c2.209,0,4,1.791,4,4
	S86.097,109.997,83.888,109.997z M104.555,87.278H25.106c-2.209,0-4-1.791-4-4s1.791-4,4-4h79.449c2.209,0,4,1.791,4,4
	S106.764,87.278,104.555,87.278z M120.084,41.842H25.106c-2.209,0-4-1.791-4-4s1.791-4,4-4h94.978c2.209,0,4,1.791,4,4
	S122.293,41.842,120.084,41.842z"/>
<g>
</g>
<g>
</g>
<g>
</g>
<g>
</g>
<g>
</g>
<g>
</g>
<g>
</g>
<g>
</g>
<g>
</g>
<g>
</g>
<g>
</g>
<g>
</g>
<g>
</g>
<g>
</g>
<g>
</g>
</svg>
