<?xml version="1.0" encoding="iso-8859-1"?>
<!-- Generator: Adobe Illustrator 19.0.0, SVG Export Plug-In . SVG Version: 6.00 Build 0)  -->
<svg version="1.1" id="Capa_1" xmlns="http://www.w3.org/2000/svg" xmlns:xlink="http://www.w3.org/1999/xlink" x="0px" y="0px"
	 viewBox="0 0 59.988 59.988" style="enable-background:new 0 0 59.988 59.988;" xml:space="preserve">
<path fill="#fff" d="M36.994,21.402L49.701,8.695c0.286-0.286,0.372-0.716,0.217-1.09c-0.154-0.374-0.52-0.617-0.924-0.617h-8
	c-0.553,0-1,0.448-1,1s0.447,1,1,1h5.586l-11,11h-1.586v-4c0-0.552-0.447-1-1-1h-2V13.97c1.222-0.204,2.349-0.775,3.242-1.669
	c1.134-1.133,1.758-2.64,1.758-4.242c0-1.603-0.624-3.109-1.758-4.243l-3.535-3.536c-0.375-0.375-1.039-0.375-1.414,0l-3.535,3.536
	c-1.134,1.133-1.758,2.64-1.758,4.243c0,1.603,0.624,3.109,1.758,4.242c0.893,0.894,2.02,1.465,3.242,1.669v1.018h-2
	c-0.553,0-1,0.448-1,1v4h-1.586l-11-11h5.586c0.553,0,1-0.448,1-1s-0.447-1-1-1h-8c-0.404,0-0.77,0.244-0.924,0.617
	c-0.155,0.374-0.069,0.804,0.217,1.09l12.707,12.707v4.859c-5.14,1.13-9,5.713-9,11.187v21.54c0,0.552,0.447,1,1,1h30
	c0.553,0,1-0.448,1-1v-7v-14v-0.54c0-5.474-3.86-10.057-9-11.187v-1.273h3v1c0,0.552,0.447,1,1,1h4c0.553,0,1-0.448,1-1v-4
	c0-0.552-0.447-1-1-1h-4c-0.553,0-1,0.448-1,1v1h-3V21.402z M27.166,10.888c-0.756-0.756-1.172-1.76-1.172-2.828
	c0-1.068,0.416-2.073,1.172-2.829l2.828-2.828l2.828,2.828c0.756,0.756,1.172,1.76,1.172,2.829c0,1.068-0.416,2.072-1.172,2.828
	c-0.513,0.512-1.144,0.854-1.828,1.03V9.988c0-0.552-0.447-1-1-1s-1,0.448-1,1v1.929C28.31,11.741,27.679,11.4,27.166,10.888z
	 M41.994,22.988h2v2h-2V22.988z M27.994,16.988h4v3h-4V16.988z M43.994,50.988h-12v-12h12V50.988z M43.971,36.988H30.994
	c-0.553,0-1,0.448-1,1v14c0,0.552,0.447,1,1,1h13v5h-28v-20.54c0-5.216,4.244-9.46,9.46-9.46h9.08
	C39.595,27.988,43.729,31.986,43.971,36.988z M25.454,25.988h-0.46v-4h2h6h2v4h-0.46H25.454z"/>
<g>
</g>
<g>
</g>
<g>
</g>
<g>
</g>
<g>
</g>
<g>
</g>
<g>
</g>
<g>
</g>
<g>
</g>
<g>
</g>
<g>
</g>
<g>
</g>
<g>
</g>
<g>
</g>
<g>
</g>
</svg>
