<?xml version="1.0" encoding="iso-8859-1"?>
<!-- Generator: Adobe Illustrator 19.0.0, SVG Export Plug-In . SVG Version: 6.00 Build 0)  -->
<svg version="1.1" id="Layer_1" xmlns="http://www.w3.org/2000/svg" xmlns:xlink="http://www.w3.org/1999/xlink" x="0px" y="0px"
	 viewBox="0 0 512 512" style="enable-background:new 0 0 512 512;" xml:space="preserve">
<g>
	<g>
		<path fill="#fff" d="M480.938,31.061c-41.412-41.412-108.794-41.414-150.209,0l-61.625,61.624c-17.1,17.1-27.921,39.771-30.468,63.834
			c-2.277,21.5,2.108,43.308,12.346,62.13l-32.335,32.335c-18.824-10.239-40.636-14.622-62.134-12.346
			c-24.062,2.548-46.73,13.369-63.831,30.469L31.059,330.73c-41.412,41.412-41.412,108.797,0,150.209
			c20.707,20.707,47.906,31.06,75.105,31.06c27.198,0,54.399-10.353,75.104-31.06l61.624-61.624
			c25.069-25.069,35.926-60.875,29.046-95.783c-0.872-4.426-5.168-7.309-9.596-6.436c-4.427,0.873-7.309,5.169-6.436,9.596
			c5.826,29.552-3.36,59.858-24.57,81.068l-61.624,61.624c-35.041,35.042-92.058,35.042-127.099,0
			c-35.042-35.042-35.042-92.058,0-127.1l61.624-61.623c26.907-26.906,68.454-33.582,102.268-17.536l-21.016,21.016
			c-21.875-6.431-45.701-0.516-61.995,15.777L61.87,361.541c-24.423,24.423-24.423,64.162,0,88.584
			c12.212,12.211,28.253,18.317,44.293,18.317c16.04,0,32.081-6.105,44.293-18.317l61.622-61.625
			c16.295-16.294,22.208-40.119,15.778-61.995l98.649-98.649c5.818,1.71,11.772,2.556,17.687,2.556
			c16.326,0,32.347-6.373,44.308-18.333l61.624-61.624c11.814-11.814,18.32-27.545,18.32-44.293s-6.507-32.477-18.32-44.293
			C438.311,50.055,422.58,43.55,405.832,43.55c-16.749,0-32.479,6.507-44.293,18.321l-61.625,61.625
			c-16.294,16.295-22.206,40.119-15.775,61.994l-21.016,21.016c-16.046-33.814-9.373-75.361,17.536-102.268l61.625-61.624
			c16.945-16.945,39.513-26.278,63.548-26.278s46.604,9.333,63.551,26.278c16.945,16.945,26.277,39.514,26.277,63.55
			s-9.332,46.604-26.278,63.55l-61.624,61.624c-21.21,21.21-51.52,30.393-81.07,24.569c-4.428-0.875-8.724,2.01-9.596,6.436
			c-0.873,4.427,2.009,8.724,6.436,9.596c6.908,1.362,13.846,2.028,20.734,2.028c27.921-0.001,54.942-10.967,75.051-31.074
			l61.624-61.624C500.968,161.237,512,134.563,512,106.164S500.968,51.093,480.938,31.061z M200.525,376.948l-61.624,61.625
			c-18.051,18.051-47.424,18.051-65.476,0c-18.052-18.052-18.052-47.425,0-65.476l61.622-61.624
			c9.753-9.753,23.164-14.476,36.503-13.394l-21.47,21.47c-11.68,11.68-11.68,30.686,0.001,42.367
			c5.657,5.658,13.181,8.774,21.183,8.774c8.001,0,15.525-3.116,21.183-8.774l21.471-21.471
			C215.003,353.785,210.279,367.195,200.525,376.948z M311.471,135.051l61.625-61.625c8.728-8.728,20.354-13.534,32.738-13.534
			c12.383,0,24.009,4.807,32.737,13.534c18.052,18.052,18.052,47.425,0,65.476l-61.623,61.624
			c-9.753,9.754-23.163,14.477-36.503,13.394l21.471-21.471c11.68-11.68,11.68-30.687-0.001-42.367
			c-5.657-5.658-13.181-8.775-21.183-8.775c-8.001,0-15.525,3.117-21.183,8.775l-21.471,21.471
			C296.994,158.215,301.717,144.806,311.471,135.051z M331.104,161.638c2.571-2.572,5.99-3.988,9.628-3.988
			c3.637,0,7.058,1.416,9.629,3.988c5.31,5.31,5.31,13.948,0,19.258L180.895,350.362c-2.572,2.571-5.992,3.988-9.629,3.988
			c-3.638,0-7.058-1.416-9.629-3.988c-5.31-5.31-5.31-13.948,0-19.258L331.104,161.638z"/>
	</g>
</g>
<g>
</g>
<g>
</g>
<g>
</g>
<g>
</g>
<g>
</g>
<g>
</g>
<g>
</g>
<g>
</g>
<g>
</g>
<g>
</g>
<g>
</g>
<g>
</g>
<g>
</g>
<g>
</g>
<g>
</g>
</svg>
