<?xml version='1.0' encoding='iso-8859-1'?>
<svg version="1.1" xmlns="http://www.w3.org/2000/svg" viewBox="0 0 470 470" xmlns:xlink="http://www.w3.org/1999/xlink" enable-background="new 0 0 470 470">
  <g>
    <g>
      <path fill="#fff" d="M91.425,207.298c-4.142,0-7.5,3.358-7.5,7.5s3.358,7.5,7.5,7.5h287.15c4.142,0,7.5-3.358,7.5-7.5s-3.358-7.5-7.5-7.5    H353.1V7.5c0-4.142-3.358-7.5-7.5-7.5H124.4c-4.142,0-7.5,3.358-7.5,7.5v199.798H91.425z M131.9,15h206.2v192.298H131.9V15z"/>
      <path fill="#fff" d="m447.5,126.808h-71.9c-4.142,0-7.5,3.358-7.5,7.5s3.358,7.5 7.5,7.5h64.4v145.984h-410v-145.984h64.4c4.142,0 7.5-3.358 7.5-7.5s-3.358-7.5-7.5-7.5h-71.9c-4.142,0-7.5,3.358-7.5,7.5v204.389c0,4.142 3.358,7.5 7.5,7.5h394.525v108.803h-375.538v-84.605c-2.13163e-14-4.142-3.358-7.5-7.5-7.5s-7.5,3.358-7.5,7.5v92.105c0,4.142 3.358,7.5 7.5,7.5h390.538c4.142,0 7.5-3.358 7.5-7.5v-116.303h15.475c4.142,0 7.5-3.358 7.5-7.5v-204.389c0-4.142-3.358-7.5-7.5-7.5zm-417.5,204.389v-28.405h410v28.405h-410z"/>
      <path fill="#fff" d="m290.346,85.346c0-30.518-24.828-55.346-55.346-55.346s-55.346,24.828-55.346,55.346c0,27.973 20.865,51.151 47.846,54.824v14.857h-14.835c-4.142,0-7.5,3.358-7.5,7.5s3.358,7.5 7.5,7.5h14.835v14.771c0,4.142 3.358,7.5 7.5,7.5s7.5-3.358 7.5-7.5v-14.771h14.835c4.142,0 7.5-3.358 7.5-7.5s-3.358-7.5-7.5-7.5h-14.835v-14.857c26.982-3.673 47.846-26.851 47.846-54.824zm-95.692,0c0-22.247 18.099-40.346 40.346-40.346s40.346,18.099 40.346,40.346-18.099,40.346-40.346,40.346-40.346-18.099-40.346-40.346z"/>
    </g>
  </g>
</svg>
